<?xml version="1.0" encoding="UTF-8" standalone="no"?>
<!-- Generator: Adobe Illustrator 16.0.0, SVG Export Plug-In . SVG Version: 6.00 Build 0)  -->

<svg
   xmlns:dc="http://purl.org/dc/elements/1.1/"
   xmlns:cc="http://creativecommons.org/ns#"
   xmlns:rdf="http://www.w3.org/1999/02/22-rdf-syntax-ns#"
   xmlns:svg="http://www.w3.org/2000/svg"
   xmlns="http://www.w3.org/2000/svg"
   xmlns:sodipodi="http://sodipodi.sourceforge.net/DTD/sodipodi-0.dtd"
   xmlns:inkscape="http://www.inkscape.org/namespaces/inkscape"
   version="1.1"
   id="Capa_1"
   x="0px"
   y="0px"
   width="910.812px"
   height="910.812px"
   viewBox="0 0 910.812 910.812"
   style="enable-background:new 0 0 910.812 910.812;"
   xml:space="preserve"
   sodipodi:docname="applications1.svg"
   inkscape:version="0.92.2 (5c3e80d, 2017-08-06)"><metadata
     id="metadata47"><rdf:RDF><cc:Work
         rdf:about=""><dc:format>image/svg+xml</dc:format><dc:type
           rdf:resource="http://purl.org/dc/dcmitype/StillImage" /><dc:title></dc:title></cc:Work></rdf:RDF></metadata><defs
     id="defs45" /><sodipodi:namedview
     pagecolor="#ffffff"
     bordercolor="#666666"
     borderopacity="1"
     objecttolerance="10"
     gridtolerance="10"
     guidetolerance="10"
     inkscape:pageopacity="0"
     inkscape:pageshadow="2"
     inkscape:window-width="1920"
     inkscape:window-height="986"
     id="namedview43"
     showgrid="false"
     inkscape:zoom="0.25910945"
     inkscape:cx="-84.906204"
     inkscape:cy="455.40601"
     inkscape:window-x="-11"
     inkscape:window-y="-11"
     inkscape:window-maximized="1"
     inkscape:current-layer="g8"
     inkscape:pagecheckerboard="true" /><g
     id="g10"><g
       id="g8"><g
         id="g6"><path
           d="m 122.483,50 v 810.812 c 0,27.613 22.386,50 50,50 H 556.138 V 758.703 H 223.57 c -8.284,0 -15,-6.717 -15,-15 0,-8.285 6.716,-15 15,-15 h 333.404 c 4.744,-28.377 29.462,-50.076 59.164,-50.076 H 788.321 V 50 c 0,-27.614 -22.386,-50 -50,-50 H 172.483 c -27.615,0 -50,22.386 -50,50 z m 392.174,44.062 42.478,151.899 c 9.694,34.166 16.621,63.715 26.777,98.342 h 1.848 c 10.156,-34.627 17.082,-64.176 26.316,-98.342 L 654.092,94.062 h 54.941 L 615.308,396.014 H 552.055 L 457.868,94.062 Z m -156.048,-5.54 c 36.475,0 66.947,18.006 85.877,38.321 l -30.011,33.243 c -15.236,-15.236 -32.319,-24.932 -55.404,-24.932 -49.864,0 -84.953,41.553 -84.953,109.423 0,68.794 32.319,110.347 83.106,110.347 26.777,0 46.17,-11.081 63.253,-30.011 l 30.01,32.781 c -24.47,28.164 -56.327,43.862 -94.187,43.862 -77.104,0 -137.125,-55.404 -137.125,-155.593 10e-4,-98.805 61.868,-157.441 139.434,-157.441 z M 223.57,471.627 h 463.664 c 8.284,0 15,6.717 15,15 0,8.283 -6.716,15 -15,15 H 223.57 c -8.284,0 -15,-6.717 -15,-15 0,-8.283 6.715,-15 15,-15 z m 0,133.082 h 463.664 c 8.284,0 15,6.717 15,15 0,8.285 -6.716,15 -15,15 H 223.57 c -8.284,0 -15,-6.715 -15,-15 0,-8.283 6.715,-15 15,-15 z"
           id="path2"
           inkscape:connector-curvature="0" /><path
           d="M 783.624,708.627 H 616.139 c -16.569,0 -30,13.432 -30,30 v 167.508 4.678 l 202.19,-202.186 z"
           id="path4"
           inkscape:connector-curvature="0" /></g><path
         style="opacity:1;fill:#ffffff;fill-opacity:1;stroke:#ffffff;stroke-width:10.73574257;stroke-miterlimit:4;stroke-dasharray:none;stroke-opacity:1"
         d="m 154.44608,905.52911 c -4.41844,-1.78747 -12.66785,-8.7575 -18.33202,-15.48898 l -10.2985,-12.23907 v -420.7449 c 0,-387.080461 0.5187,-421.623025 6.48289,-431.719588 C 146.77952,0.82207083 132.25562,1.805564 460.91379,3.0842314 l 298.4342,1.1610788 13.21017,14.4159728 13.21017,14.415973 V 355.39157 677.70589 h -92.81661 c -98.9478,0 -104.38801,0.88653 -122.08636,19.89503 -4.63457,4.97762 -10.22904,13.80814 -12.43212,19.62332 l -4.00564,10.57303 -170.46835,1.00509 c -157.51292,0.92868 -170.79204,1.51836 -174.7277,7.75896 -3.10624,4.92545 -3.10624,8.58236 0,13.50781 3.93558,6.24049 17.20946,6.83032 174.61688,7.75888 l 170.35752,1.00498 v 75.21764 75.21763 l -195.86317,-0.24468 c -107.72475,-0.1345 -199.47827,-1.70704 -203.8967,-3.49447 z M 702.35192,626.5692 c 3.10679,-4.92584 3.10679,-8.58198 0,-13.50781 -3.97141,-6.29668 -20.53144,-6.82121 -244.61956,-7.74815 -174.32473,-0.72113 -241.80352,0.20416 -245.61487,3.36707 -6.50577,5.3993 -6.78692,15.77816 -0.59515,21.96994 3.56238,3.56236 61.41293,4.42593 245.61487,3.6664 224.65541,-0.92636 241.24307,-1.45042 245.21471,-7.74745 z m -3.69516,-128.59983 c 7.69791,-7.69787 7.69791,-14.90702 0,-22.60489 -5.38081,-5.38081 -32.61054,-6.06473 -241.46452,-6.06473 -154.88659,0 -237.95305,1.36645 -242.86482,3.99514 -9.34286,5.00017 -9.77881,21.28927 -0.71113,26.57071 4.38168,2.55208 89.68496,3.975 242.86483,4.05114 209.60254,0.1042 236.79182,-0.56354 242.17564,-5.94737 z M 407.91301,391.15239 c 19.93743,-9.36065 42.08987,-26.85317 42.08987,-33.23596 0,-1.65468 -6.29715,-10.36531 -13.99367,-19.35697 l -13.99368,-16.34846 -8.19772,7.69549 c -12.33883,11.58291 -41.21313,23.46913 -56.43988,23.2337 -30.55029,-0.47236 -57.14306,-19.10075 -70.55726,-49.42576 -10.81677,-24.45313 -13.27967,-73.701 -5.09397,-101.85881 16.525,-56.84399 73.069,-81.21521 118.56892,-51.10479 l 16.36667,10.83095 14.62544,-16.91827 c 8.04399,-9.30505 14.67727,-17.9264 14.74061,-19.15855 0.0633,-1.23216 -7.33391,-7.58982 -16.43833,-14.12812 -53.83593,-38.66204 -125.87295,-30.115929 -172.05208,20.41139 -25.68949,28.1084 -35.64942,54.8996 -38.14259,102.59966 -3.01616,57.70624 10.22667,99.43719 41.46995,130.68047 38.08244,38.08243 98.62,48.82087 147.04772,26.08403 z m 255.05798,-141.8369 c 24.8519,-79.59957 45.28083,-147.76574 45.39758,-151.480386 0.18254,-5.811475 -3.57073,-6.753903 -26.89883,-6.753903 -24.57421,0 -27.41687,0.812568 -30.37855,8.683589 -1.79708,4.77597 -16.95037,59.46516 -33.674,121.53154 -16.72362,62.06637 -31.27493,112.85916 -32.33625,112.87287 -1.06133,0.0137 -13.98842,-43.821 -28.72686,-97.41046 -14.73844,-53.58945 -30.01677,-108.28986 -33.95187,-121.55646 l -7.15466,-24.121079 h -28.76296 c -18.39709,0 -28.76296,1.534498 -28.76296,4.257888 0,3.243197 82.07157,270.824041 90.77577,295.959531 1.27081,3.66968 10.58858,4.68254 35.50561,3.85937 l 33.78272,-1.11601 z"
         id="path53"
         inkscape:connector-curvature="0" /><path
         style="opacity:1;fill:#ffffff;fill-opacity:1;stroke:#ffffff;stroke-width:10.73574257;stroke-miterlimit:4;stroke-dasharray:none;stroke-opacity:1"
         d="m 588.94031,816.07708 c 0,-114.80783 -7.71429,-105.17409 85.52367,-106.8034 38.92951,-0.68028 79.06042,-0.68028 89.1798,0 l 18.39887,1.23688 -96.55117,96.45537 -96.55117,96.45538 z"
         id="path55"
         inkscape:connector-curvature="0" /></g></g><g
     id="g12" /><g
     id="g14" /><g
     id="g16" /><g
     id="g18" /><g
     id="g20" /><g
     id="g22" /><g
     id="g24" /><g
     id="g26" /><g
     id="g28" /><g
     id="g30" /><g
     id="g32" /><g
     id="g34" /><g
     id="g36" /><g
     id="g38" /><g
     id="g40" /></svg>